<svg width="387" height="95" viewBox="0 0 387 95" fill="none" xmlns="http://www.w3.org/2000/svg">
<path d="M77.2149 2.35832C76.3125 2.55179 75.5077 3.05825 74.9428 3.78808C74.3779 4.51791 74.0894 5.42405 74.1284 6.34612V84.5384C74.0367 85.0979 74.0678 85.6705 74.2195 86.2168C74.3712 86.763 74.6399 87.2697 75.0069 87.7017C75.3739 88.1338 75.8305 88.4809 76.345 88.7189C76.8595 88.9569 77.4196 89.0802 77.9865 89.0802C78.5534 89.0802 79.1135 88.9569 79.6281 88.7189C80.1426 88.4809 80.5991 88.1338 80.9662 87.7017C81.3332 87.2697 81.6019 86.763 81.7536 86.2168C81.9053 85.6705 81.9364 85.0979 81.8447 84.5384V6.34612C81.8578 5.7965 81.7548 5.25029 81.5424 4.74318C81.3301 4.23606 81.0131 3.77943 80.6124 3.4031C80.2115 3.02677 79.7359 2.73921 79.2164 2.55918C78.6969 2.37915 78.1453 2.31071 77.5976 2.35832C77.4701 2.35207 77.3424 2.35207 77.2149 2.35832ZM27.8303 6.4737C26.9279 6.66717 26.123 7.17364 25.5582 7.90347C24.9933 8.6333 24.7048 9.53943 24.7438 10.4615V80.423C24.6521 80.9825 24.6832 81.5552 24.8349 82.1014C24.9866 82.6476 25.2553 83.1543 25.6223 83.5863C25.9893 84.0184 26.4459 84.3655 26.9604 84.6035C27.4749 84.8415 28.035 84.9648 28.6019 84.9648C29.1688 84.9648 29.7289 84.8415 30.2434 84.6035C30.7579 84.3655 31.2145 84.0184 31.5816 83.5863C31.9486 83.1543 32.2173 82.6476 32.369 82.1014C32.5207 81.5552 32.5518 80.9825 32.4601 80.423V10.4615C32.4732 9.91188 32.3702 9.36568 32.1578 8.85856C31.9454 8.35144 31.6285 7.89481 31.2277 7.51849C30.8269 7.14216 30.3513 6.85459 29.8318 6.67456C29.3123 6.49453 28.7607 6.42609 28.213 6.4737C28.0855 6.46745 27.9578 6.46745 27.8303 6.4737ZM64.8688 18.8199C63.9664 19.0133 63.1615 19.5198 62.5966 20.2496C62.0317 20.9795 61.7432 21.8856 61.7822 22.8077V68.0769C61.6886 68.6371 61.7181 69.2109 61.8688 69.7586C62.0194 70.3062 62.2876 70.8144 62.6546 71.2478C63.0216 71.6813 63.4787 72.0296 63.9939 72.2684C64.5092 72.5073 65.0704 72.6311 65.6383 72.6311C66.2063 72.6311 66.7674 72.5073 67.2827 72.2684C67.798 72.0296 68.255 71.6813 68.622 71.2478C68.989 70.8144 69.2572 70.3062 69.4079 69.7586C69.5585 69.2109 69.5881 68.6371 69.4944 68.0769V22.8077C69.5074 22.2588 69.4046 21.7133 69.1927 21.2068C68.9809 20.7003 68.6647 20.2441 68.2648 19.8679C67.8649 19.4917 67.3903 19.204 66.8718 19.0234C66.3533 18.8428 65.8027 18.7735 65.2556 18.8199C65.1254 18.8133 64.9949 18.8133 64.8646 18.8199H64.8688ZM15.4841 22.9352C14.5817 23.1287 13.7769 23.6352 13.212 24.365C12.6471 25.0948 12.3586 26.001 12.3976 26.923V63.9615C12.304 64.5217 12.3335 65.0956 12.4842 65.6432C12.6348 66.1908 12.903 66.699 13.27 67.1324C13.637 67.5659 14.0941 67.9142 14.6093 68.1531C15.1246 68.3919 15.6858 68.5157 16.2537 68.5157C16.8217 68.5157 17.3828 68.3919 17.8981 68.1531C18.4134 67.9142 18.8704 67.5659 19.2374 67.1324C19.6044 66.699 19.8726 66.1908 20.0233 65.6432C20.1739 65.0956 20.2035 64.5217 20.1098 63.9615V26.923C20.1228 26.3742 20.02 25.8287 19.8081 25.3222C19.5963 24.8157 19.2801 24.3595 18.8802 23.9833C18.4803 23.6071 18.0057 23.3194 17.4872 23.1388C16.9687 22.9582 16.418 22.8889 15.871 22.9352C15.7407 22.9287 15.6103 22.9287 15.48 22.9352H15.4841ZM40.1764 27.0506C39.274 27.2441 38.4692 27.7506 37.9043 28.4804C37.3394 29.2102 37.0509 30.1164 37.0899 31.0384V59.8461C36.9963 60.4063 37.0258 60.9802 37.1765 61.5278C37.3271 62.0754 37.5953 62.5836 37.9623 63.0171C38.3293 63.4505 38.7864 63.7988 39.3016 64.0377C39.8169 64.2766 40.3781 64.4003 40.946 64.4003C41.514 64.4003 42.0751 64.2766 42.5904 64.0377C43.1057 63.7988 43.5627 63.4505 43.9297 63.0171C44.2967 62.5836 44.5649 62.0754 44.7156 61.5278C44.8662 60.9802 44.8958 60.4063 44.8021 59.8461V31.0384C44.8151 30.4896 44.7123 29.9441 44.5004 29.4376C44.2886 28.9311 43.9724 28.4749 43.5725 28.0987C43.1726 27.7225 42.698 27.4348 42.1795 27.2542C41.661 27.0736 41.1103 27.0042 40.5633 27.0506C40.433 27.0441 40.3026 27.0441 40.1723 27.0506H40.1764ZM89.5611 27.0506C88.6587 27.2441 87.8538 27.7506 87.2889 28.4804C86.724 29.2102 86.4355 30.1164 86.4745 31.0384V59.8461C86.3829 60.4056 86.414 60.9782 86.5657 61.5245C86.7174 62.0707 86.986 62.5774 87.3531 63.0094C87.7201 63.4415 88.1767 63.7885 88.6912 64.0266C89.2057 64.2646 89.7658 64.3879 90.3327 64.3879C90.8996 64.3879 91.4597 64.2646 91.9742 64.0266C92.4887 63.7885 92.9453 63.4415 93.3123 63.0094C93.6793 62.5774 93.948 62.0707 94.0997 61.5245C94.2514 60.9782 94.2825 60.4056 94.1909 59.8461V31.0384C94.2039 30.4888 94.1009 29.9426 93.8886 29.4355C93.6762 28.9284 93.3593 28.4717 92.9585 28.0954C92.5577 27.7191 92.082 27.4315 91.5626 27.2515C91.0431 27.0715 90.4915 27.003 89.9438 27.0506C89.8163 27.0444 89.6886 27.0444 89.5611 27.0506ZM3.13798 35.2814C2.23559 35.4749 1.43073 35.9813 0.865847 36.7112C0.300964 37.441 0.0124775 38.3471 0.0514425 39.2692V51.6154C-0.0402173 52.1748 -0.00911911 52.7475 0.142581 53.2937C0.294282 53.8399 0.562955 54.3466 0.929977 54.7787C1.297 55.2107 1.75359 55.5578 2.2681 55.7958C2.7826 56.0338 3.34272 56.1571 3.90962 56.1571C4.47651 56.1571 5.03663 56.0338 5.55114 55.7958C6.06564 55.5578 6.52223 55.2107 6.88925 54.7787C7.25628 54.3466 7.52495 53.8399 7.67665 53.2937C7.82835 52.7475 7.85945 52.1748 7.76779 51.6154V39.2692C7.78085 38.7196 7.67784 38.1734 7.46549 37.6663C7.25314 37.1591 6.93622 36.7025 6.53543 36.3262C6.13463 35.9499 5.65897 35.6623 5.1395 35.4823C4.62003 35.3022 4.06843 35.2338 3.52071 35.2814C3.39184 35.275 3.26274 35.275 3.13387 35.2814H3.13798ZM52.5226 35.2814C51.6202 35.4749 50.8153 35.9813 50.2505 36.7112C49.6856 37.441 49.3971 38.3471 49.4361 39.2692V51.6154C49.3424 52.1755 49.372 52.7494 49.5226 53.297C49.6733 53.8446 49.9414 54.3528 50.3085 54.7863C50.6755 55.2197 51.1325 55.568 51.6478 55.8069C52.1631 56.0458 52.7242 56.1695 53.2922 56.1695C53.8601 56.1695 54.4213 56.0458 54.9366 55.8069C55.4518 55.568 55.9089 55.2197 56.2759 54.7863C56.6429 54.3528 56.9111 53.8446 57.0617 53.297C57.2124 52.7494 57.2419 52.1755 57.1483 51.6154V39.2692C57.1612 38.7203 57.0584 38.1749 56.8466 37.6684C56.6347 37.1619 56.3186 36.7057 55.9187 36.3295C55.5188 35.9533 55.0442 35.6655 54.5257 35.4849C54.0072 35.3044 53.4565 35.235 52.9094 35.2814C52.7792 35.2749 52.6487 35.2749 52.5185 35.2814H52.5226ZM101.907 35.2814C101.005 35.4749 100.2 35.9813 99.6351 36.7112C99.0702 37.441 98.7817 38.3471 98.8207 39.2692V51.6154C98.729 52.1748 98.7601 52.7475 98.9118 53.2937C99.0635 53.8399 99.3322 54.3466 99.6992 54.7787C100.066 55.2107 100.523 55.5578 101.037 55.7958C101.552 56.0338 102.112 56.1571 102.679 56.1571C103.246 56.1571 103.806 56.0338 104.32 55.7958C104.835 55.5578 105.291 55.2107 105.658 54.7787C106.025 54.3466 106.294 53.8399 106.446 53.2937C106.598 52.7475 106.629 52.1748 106.537 51.6154V39.2692C106.55 38.7196 106.447 38.1734 106.235 37.6663C106.022 37.1591 105.705 36.7025 105.305 36.3262C104.904 35.9499 104.428 35.6623 103.909 35.4823C103.389 35.3022 102.838 35.2338 102.29 35.2814C102.162 35.2751 102.035 35.2751 101.907 35.2814Z" fill="#4CB050"/>
<path d="M146.288 53.312C140.912 51.6053 137.03 49.4933 134.64 46.976C132.251 44.416 131.056 41.3013 131.056 37.632C131.056 33.6213 132.443 30.464 135.216 28.16C138.032 25.8133 142.043 24.64 147.248 24.64C151.174 24.64 154.736 25.088 157.936 25.984C158.96 26.2827 159.771 26.9013 160.368 27.84C161.008 28.736 161.328 29.7387 161.328 30.848V32.704C161.328 33.5573 160.966 34.2187 160.24 34.688C159.515 35.1573 158.747 35.2427 157.936 34.944C154.31 33.664 150.96 33.024 147.888 33.024C143.963 33.024 142 34.56 142 37.632C142 40.2347 143.707 42.0907 147.12 43.2C153.008 44.992 157.083 47.0827 159.344 49.472C161.648 51.8613 162.8 54.9973 162.8 58.88C162.8 68.0533 157.019 72.64 145.456 72.64C141.787 72.64 138.459 72.064 135.472 70.912C134.448 70.528 133.638 69.8667 133.04 68.928C132.486 67.9467 132.208 66.88 132.208 65.728V63.68C132.208 62.912 132.55 62.336 133.232 61.952C133.915 61.5253 134.598 61.4827 135.28 61.824C138.395 63.36 141.574 64.128 144.816 64.128C147.078 64.128 148.784 63.7013 149.936 62.848C151.131 61.952 151.728 60.6933 151.728 59.072C151.728 57.664 151.323 56.512 150.512 55.616C149.702 54.72 148.294 53.952 146.288 53.312ZM189.53 47.68C188.506 46.1013 186.928 45.312 184.794 45.312C182.661 45.312 181.061 46.1013 179.994 47.68C178.97 49.2587 178.458 51.8187 178.458 55.36C178.458 58.9013 178.97 61.4613 179.994 63.04C181.061 64.6187 182.661 65.408 184.794 65.408C186.928 65.408 188.506 64.6187 189.53 63.04C190.597 61.4613 191.13 58.9013 191.13 55.36C191.13 51.8187 190.597 49.2587 189.53 47.68ZM197.146 68.096C194.202 71.1253 190.085 72.64 184.794 72.64C179.504 72.64 175.386 71.1253 172.442 68.096C169.498 65.0667 168.026 60.8213 168.026 55.36C168.026 49.8987 169.498 45.6533 172.442 42.624C175.386 39.5947 179.504 38.08 184.794 38.08C190.085 38.08 194.202 39.5947 197.146 42.624C200.09 45.6533 201.562 49.8987 201.562 55.36C201.562 60.8213 200.09 65.0667 197.146 68.096ZM218.134 72.64C214.38 72.64 211.649 71.5947 209.942 69.504C208.278 67.4133 207.446 63.8293 207.446 58.752V42.368C207.446 41.3867 207.809 40.5333 208.534 39.808C209.26 39.0827 210.113 38.72 211.094 38.72H213.91C214.892 38.72 215.745 39.0827 216.47 39.808C217.196 40.5333 217.558 41.3867 217.558 42.368V58.048C217.558 60.5227 217.878 62.2293 218.518 63.168C219.201 64.064 220.353 64.512 221.974 64.512C223.468 64.512 224.833 63.9147 226.07 62.72C227.308 61.4827 227.926 60.16 227.926 58.752V42.368C227.926 41.3867 228.289 40.5333 229.014 39.808C229.74 39.0827 230.593 38.72 231.574 38.72H234.646C235.628 38.72 236.481 39.0827 237.206 39.808C237.932 40.5333 238.294 41.3867 238.294 42.368V68.352C238.294 69.3333 237.932 70.1867 237.206 70.912C236.481 71.6373 235.628 72 234.646 72H232.022C230.998 72 230.124 71.6587 229.398 70.976C228.716 70.2507 228.353 69.376 228.31 68.352V67.84C228.31 67.7973 228.289 67.776 228.246 67.776L228.118 67.904C225.345 71.0613 222.017 72.64 218.134 72.64ZM250.35 72C249.369 72 248.516 71.6373 247.79 70.912C247.108 70.1867 246.766 69.3333 246.766 68.352V42.368C246.766 41.3867 247.108 40.5333 247.79 39.808C248.516 39.0827 249.369 38.72 250.35 38.72H252.974C253.998 38.72 254.852 39.0827 255.534 39.808C256.26 40.4907 256.644 41.344 256.686 42.368L256.75 42.88C256.75 42.9227 256.772 42.944 256.814 42.944L256.942 42.816C259.716 39.6587 263.044 38.08 266.926 38.08C270.809 38.08 273.604 39.1893 275.31 41.408C277.017 43.584 277.87 47.3173 277.87 52.608V68.352C277.87 69.3333 277.508 70.1867 276.782 70.912C276.1 71.6373 275.268 72 274.286 72H271.47C270.489 72 269.636 71.6373 268.91 70.912C268.185 70.1867 267.822 69.3333 267.822 68.352V52.928C267.822 50.368 267.481 48.6187 266.798 47.68C266.116 46.6987 264.878 46.208 263.086 46.208C261.593 46.208 260.206 46.8267 258.926 48.064C257.689 49.2587 257.07 50.56 257.07 51.968V68.352C257.07 69.3333 256.708 70.1867 255.982 70.912C255.3 71.6373 254.468 72 253.486 72H250.35ZM297.28 34.112V63.168C297.28 63.552 297.472 63.7867 297.856 63.872C298.71 64.0427 299.734 64.128 300.928 64.128C305.238 64.128 308.416 62.8693 310.464 60.352C312.555 57.8347 313.6 53.7173 313.6 48C313.6 42.88 312.555 39.1253 310.464 36.736C308.374 34.3467 305.195 33.152 300.928 33.152C299.734 33.152 298.71 33.2373 297.856 33.408C297.472 33.4933 297.28 33.728 297.28 34.112ZM290.24 72.128C289.216 72.0427 288.363 71.616 287.68 70.848C286.998 70.0373 286.656 69.0987 286.656 68.032V29.248C286.656 28.1813 286.998 27.264 287.68 26.496C288.363 25.6853 289.216 25.2373 290.24 25.152C293.568 24.8107 296.854 24.64 300.096 24.64C307.734 24.64 313.622 26.6667 317.76 30.72C321.899 34.7733 323.968 40.5333 323.968 48C323.968 56.1067 321.899 62.2507 317.76 66.432C313.622 70.5707 307.734 72.64 300.096 72.64C296.854 72.64 293.568 72.4693 290.24 72.128ZM343.851 53.312C338.475 51.6053 334.592 49.4933 332.203 46.976C329.813 44.416 328.619 41.3013 328.619 37.632C328.619 33.6213 330.005 30.464 332.779 28.16C335.595 25.8133 339.605 24.64 344.811 24.64C348.736 24.64 352.299 25.088 355.499 25.984C356.523 26.2827 357.333 26.9013 357.931 27.84C358.571 28.736 358.891 29.7387 358.891 30.848V32.704C358.891 33.5573 358.528 34.2187 357.803 34.688C357.077 35.1573 356.309 35.2427 355.499 34.944C351.872 33.664 348.523 33.024 345.451 33.024C341.525 33.024 339.563 34.56 339.563 37.632C339.563 40.2347 341.269 42.0907 344.683 43.2C350.571 44.992 354.645 47.0827 356.907 49.472C359.211 51.8613 360.363 54.9973 360.363 58.88C360.363 68.0533 354.581 72.64 343.019 72.64C339.349 72.64 336.021 72.064 333.035 70.912C332.011 70.528 331.2 69.8667 330.603 68.928C330.048 67.9467 329.771 66.88 329.771 65.728V63.68C329.771 62.912 330.112 62.336 330.795 61.952C331.477 61.5253 332.16 61.4827 332.843 61.824C335.957 63.36 339.136 64.128 342.379 64.128C344.64 64.128 346.347 63.7013 347.499 62.848C348.693 61.952 349.291 60.6933 349.291 59.072C349.291 57.664 348.885 56.512 348.075 55.616C347.264 54.72 345.856 53.952 343.851 53.312Z" fill="#101010"/>
<path d="M375.708 32.848V35.152C375.708 35.224 375.74 35.26 375.804 35.26H376.38C376.94 35.26 377.368 35.144 377.664 34.912C377.96 34.672 378.108 34.34 378.108 33.916C378.108 33.084 377.56 32.668 376.464 32.668C376.216 32.668 376 32.684 375.816 32.716C375.744 32.732 375.708 32.776 375.708 32.848ZM374.388 40C374.204 40 374.044 39.932 373.908 39.796C373.772 39.66 373.704 39.5 373.704 39.316V31.984C373.704 31.784 373.768 31.612 373.896 31.468C374.032 31.324 374.196 31.244 374.388 31.228C375.1 31.156 375.832 31.12 376.584 31.12C377.784 31.12 378.676 31.348 379.26 31.804C379.852 32.252 380.148 32.892 380.148 33.724C380.148 34.26 379.992 34.744 379.68 35.176C379.368 35.6 378.96 35.904 378.456 36.088C378.448 36.088 378.444 36.092 378.444 36.1C378.444 36.116 378.452 36.124 378.468 36.124C378.86 36.348 379.192 36.82 379.464 37.54L380.148 39.364C380.204 39.516 380.184 39.66 380.088 39.796C379.992 39.932 379.864 40 379.704 40H378.972C378.764 40 378.576 39.94 378.408 39.82C378.24 39.7 378.124 39.544 378.06 39.352L377.46 37.624C377.348 37.288 377.212 37.06 377.052 36.94C376.892 36.82 376.644 36.76 376.308 36.76H375.804C375.74 36.76 375.708 36.796 375.708 36.868V39.316C375.708 39.5 375.64 39.66 375.504 39.796C375.368 39.932 375.208 40 375.024 40H374.388Z" fill="#101010"/>
<circle cx="376.292" cy="35.5" r="9.5" stroke="black" stroke-width="2"/>
</svg>
