<svg width="16" height="16" viewBox="0 0 16 16" fill="none" xmlns="http://www.w3.org/2000/svg">
<path fill-rule="evenodd" clip-rule="evenodd" d="M1.885 0.511025C2.05997 0.336314 2.27008 0.200783 2.5014 0.113415C2.73271 0.0260465 2.97995 -0.0111645 3.22674 0.00424771C3.47352 0.0196599 3.71421 0.0873434 3.93286 0.202813C4.15151 0.318282 4.34312 0.478901 4.495 0.674025L6.29 2.98002C6.619 3.40302 6.735 3.95402 6.605 4.47402L6.058 6.66402C6.02972 6.77745 6.03125 6.89627 6.06244 7.00893C6.09362 7.1216 6.15341 7.22429 6.236 7.30702L8.693 9.76402C8.77584 9.84678 8.87869 9.90667 8.99155 9.93786C9.10441 9.96906 9.22342 9.97049 9.337 9.94203L11.526 9.39503C11.7826 9.33086 12.0505 9.32588 12.3093 9.38045C12.5681 9.43502 12.8111 9.54772 13.02 9.71002L15.326 11.504C16.155 12.149 16.231 13.374 15.489 14.115L14.455 15.149C13.715 15.889 12.609 16.214 11.578 15.851C8.93918 14.9226 6.54327 13.4119 4.568 11.431C2.58729 9.45604 1.07661 7.06048 0.148 4.42202C-0.214 3.39202 0.111 2.28502 0.851 1.54502L1.885 0.511025Z" fill="white"/>
</svg>
